# xmcd
#
# Track frame offsets:
#	150
#	25493
#	43487
#	66641
#	84913
#	105926
#	118007
#	152454
#	174895
#	195984
#	203151
#	227939
#	247827
#	263346
#
# Disc length: 3811 seconds
#
# Revision: 1
# Processed by: cddbd v1.4PL0 Copyright (c) Steve Scherf et al.
# Submitted via: audiograbber 1.81.03
#
DISCID=ad0ee10e
DTITLE=Gregor Hilden and Johnny Rogers Band - Soul Serenade
DYEAR=2001
DGENRE=Blues
TTITLE0=I Wonna get Into You
TTITLE1=It's Not Easy
TTITLE2=I've Got To Use My Imagination
TTITLE3=Still In Love With You
TTITLE4=Blues After Midnight
TTITLE5=Rock Candy
TTITLE6=I Love You More Than You'll Ever Know
TTITLE7=Leaving This Town
TTITLE8=Soul Serenade
TTITLE9=Junkie Case
TTITLE10=One More Time
TTITLE11=Cadillac Assembly Line
TTITLE12=Sweet Rain
TTITLE13=Give Me Strength
EXTD=
EXTT0=
EXTT1=
EXTT2=
EXTT3=
EXTT4=
EXTT5=
EXTT6=
EXTT7=
EXTT8=
EXTT9=
EXTT10=
EXTT11=
EXTT12=
EXTT13=
PLAYORDER=
